<svg width="384" height="179" viewBox="0 0 384 179" fill="none" xmlns="http://www.w3.org/2000/svg">
<path d="M341.056 52.8523C362.02 52.4214 383.592 63.8264 383.896 87.0106C384.317 119.069 340.865 115.391 319.17 115.671C320.42 118.913 320.84 120.491 322.9 123.488C330.833 135.03 345.545 135.212 357.744 131.471C362.703 129.951 367.366 125.014 372.736 126.117C376.062 126.801 378.084 128.697 379.888 131.362C381.992 135.191 382.006 140.787 378.759 143.946C371.207 151.296 358.371 154.378 348.157 155.293C333.754 156.583 319.53 152.909 308.378 143.499C287.551 125.578 286.638 89.8965 304.267 69.5291C313.296 59.0977 325.158 53.8316 338.811 52.9236C339.559 52.8924 340.308 52.8686 341.056 52.8523ZM355.315 78.2029C351.274 74.5238 345.705 73.8357 340.473 74.1014L339.642 74.1463C332.685 75.0393 328.001 77.5523 323.556 83.1414C320.232 87.3224 319.068 92.3428 318.172 97.5389C324.835 97.6378 331.5 97.6722 338.165 97.6424C345.866 97.4868 359.575 96.9726 359.102 86.2674C358.964 83.1825 357.6 80.2793 355.315 78.2029Z" fill="#F5EFE6"></path>
<path d="M187.313 54.1465C198.119 52.8512 200.478 59.9126 204.032 68.2243C208.872 79.5514 213.838 90.8786 218.718 102.189C222.069 109.957 224.843 119.361 228.938 126.846C233.797 116.238 238.865 103.462 243.58 92.7985L251.978 74.0649C253.59 70.4584 255.173 66.8337 256.813 63.2371C258.406 59.7444 260.782 57.4324 264.477 56.1903C268.32 54.9258 272.511 55.2579 276.106 57.1114C284.462 61.3141 283.887 69.1654 279.971 76.178C277.943 79.8117 276.004 83.9465 274.098 87.6799C266.862 102.577 259.485 119.404 251.964 134.158C249.627 138.723 246.59 145.628 243.832 149.696C238.013 158.283 220.68 158.09 213.844 150.863C210.836 147.685 208.722 141.778 206.694 137.887C201.866 128.356 197.55 116.525 193.012 106.851L183.022 85.4889C181.083 81.361 176.148 71.9689 175.587 68.0615C175.127 65.0222 175.9 61.9252 177.735 59.4583C180.075 56.3416 183.519 54.6828 187.313 54.1465Z" fill="#F5EFE6"></path>
<path d="M11.4869 2.92599C15.7838 2.54849 20.5332 2.94442 23.9732 5.81438C29.5494 10.4664 28.3318 20.1666 28.3255 26.8111L28.2943 49.7024C28.3074 53.6233 28.2264 58.9206 28.5579 62.7504C29.0478 62.2117 29.6037 61.6029 30.1707 61.1417C44.8013 49.2406 69.1393 49.8908 83.0961 62.5646C90.0252 68.8569 94.2925 80.0627 95.1377 89.249C95.6024 94.3006 95.4576 99.6182 95.4418 104.745L95.3993 125.537C95.4 134.903 94.7062 147.023 104.705 151.624C116.897 157.235 129.119 149.149 129.918 135.967C130.413 127.801 130.11 120.104 130.102 112.091L130.038 75.6534C130.031 71.5459 129.475 64.3756 131.124 60.7224C135.403 51.2454 153.336 51.7715 156.685 61.4855C158.19 65.8487 157.676 76.4863 157.679 81.4714L157.696 106.862L157.717 124.772C157.724 129.543 157.848 134.556 157.25 139.28C156.516 144.988 154.765 150.517 152.078 155.606C151.158 157.156 150.248 158.696 149.236 160.166C133.722 182.691 95.8471 184.04 78.074 163.544C72.1923 156.761 68.7184 147.568 67.8913 138.803C67.4797 134.441 67.6045 129.714 67.6134 125.389L67.6863 106.844C67.7157 97.1097 68.4457 85.6312 59.3177 79.3135C52.2357 74.4117 41.596 75.525 35.2182 81.161C28.5788 87.0281 28.2928 94.5696 28.3216 102.8L28.3478 112.513L28.348 137.038C28.3461 141.673 28.9135 148.113 26.1158 151.907C20.115 160.146 1.78761 158.443 0.380038 147.073C-0.196488 142.416 0.0584504 136.541 0.0434541 131.746L0.0211674 100.675L0.0474108 43.8432L0.0542852 25.4192C0.056368 15.4992 -1.33225 4.96725 11.4869 2.92599Z" fill="#F5EFE6"></path>
<path d="M162.572 17.5C163.465 19.047 163.465 20.953 162.572 22.5L155.459 34.8205C154.566 36.3675 152.915 37.3205 151.129 37.3205H136.902C135.116 37.3205 133.465 36.3675 132.572 34.8205L125.459 22.5C124.566 20.953 124.566 19.047 125.459 17.5L132.572 5.17949C133.465 3.63249 135.116 2.67949 136.902 2.67949H151.129C152.915 2.67949 154.566 3.63249 155.459 5.17949L162.572 17.5Z" fill="#C96A3D"></path>
</svg>