<svg width="1080" height="1080" viewBox="0 0 1080 1080" fill="none" xmlns="http://www.w3.org/2000/svg">
<rect width="1080" height="1080" rx="200" fill="#F5EFE6"></rect>
<path d="M879.339 263.69C883.161 270.31 883.161 278.466 879.339 285.086L856.924 323.911C853.101 330.531 846.038 334.609 838.394 334.609H793.563C785.919 334.609 778.855 330.531 775.033 323.911L752.618 285.086C748.796 278.466 748.796 270.31 752.618 263.69L775.033 224.865C778.855 218.245 785.919 214.167 793.563 214.167H838.394C846.038 214.167 853.101 218.245 856.924 224.865L879.339 263.69Z" fill="#C96A3D"></path>
<path d="M244.407 159.739C263.082 158.099 283.723 159.819 298.674 172.292C322.908 192.51 317.616 234.668 317.589 263.546L317.453 363.033C317.51 380.074 317.158 403.096 318.599 419.74C320.728 417.399 323.144 414.754 325.608 412.749C389.194 361.026 494.969 363.852 555.626 418.933C585.741 446.28 604.287 494.981 607.96 534.906C609.98 556.86 609.351 579.971 609.282 602.251L609.097 692.618C609.1 733.32 606.085 785.995 649.539 805.994C702.526 830.379 755.645 795.235 759.119 737.947C761.271 702.457 759.952 669.006 759.919 634.177L759.639 475.818C759.609 457.967 757.193 426.804 764.361 410.927C782.956 369.739 860.893 372.026 875.45 414.243C881.989 433.206 879.758 479.438 879.77 501.104L879.845 611.451L879.935 689.29C879.965 710.025 880.504 731.811 877.906 752.344C874.717 777.15 867.103 801.183 855.425 823.3C851.43 830.036 847.474 836.728 843.074 843.117C775.649 941.012 611.043 946.873 533.8 857.795C508.238 828.316 493.14 788.363 489.545 750.27C487.756 731.312 488.299 710.771 488.337 691.974L488.654 611.376C488.782 569.069 491.955 519.182 452.284 491.725C421.505 470.421 375.264 475.26 347.545 499.754C318.69 525.253 317.447 558.029 317.572 593.799L317.686 636.014L317.687 746.945C317.679 767.09 320.145 795.079 307.986 811.566C281.906 847.375 202.253 839.976 196.136 790.558C193.63 770.321 194.738 744.786 194.673 723.946L194.576 584.566L194.69 337.568L194.72 257.497C194.729 214.383 188.694 168.611 244.407 159.739Z" fill="#2C2C2C"></path>
</svg>